<svg width="496" height="496" viewBox="0 0 496 496" fill="none" xmlns="http://www.w3.org/2000/svg">
<path d="M0 248C0 111 111 0 248 0C385 0 496 111 496 248C496 385 385 496 248 496C111 496 0 385 0 248ZM143.6 276.9L216 201.4V384C216 397.3 226.7 408 240 408H256C269.3 408 280 397.3 280 384V201.4L352.4 276.9C361.7 286.6 377.2 286.8 386.7 277.3L397.6 266.3C407 256.9 407 241.7 397.6 232.4L265 99.7C255.6 90.3 240.4 90.3 231.1 99.7L98.3 232.4C88.9 241.8 88.9 257 98.3 266.3L109.2 277.3C118.8 286.8 134.3 286.6 143.6 276.9V276.9Z" fill="#18137C"/>
</svg>
